<?xml version="1.0" encoding="UTF-8" standalone="no"?>
<!-- Created with Inkscape (http://www.inkscape.org/) -->

<svg
   width="1024"
   height="1024"
   viewBox="0 0 270.93333 270.93333"
   version="1.1"
   id="svg10574"
   inkscape:version="1.2.2 (b0a8486541, 2022-12-01)"
   sodipodi:docname="chabi-logo-web.svg"
   xmlns:inkscape="http://www.inkscape.org/namespaces/inkscape"
   xmlns:sodipodi="http://sodipodi.sourceforge.net/DTD/sodipodi-0.dtd"
   xmlns="http://www.w3.org/2000/svg"
   xmlns:svg="http://www.w3.org/2000/svg">
  <sodipodi:namedview
     id="namedview10576"
     pagecolor="#ffffff"
     bordercolor="#000000"
     borderopacity="0.25"
     inkscape:showpageshadow="2"
     inkscape:pageopacity="0.0"
     inkscape:pagecheckerboard="0"
     inkscape:deskcolor="#d1d1d1"
     inkscape:document-units="mm"
     showgrid="false"
     inkscape:zoom="0.69664703"
     inkscape:cx="396.90114"
     inkscape:cy="561.25984"
     inkscape:window-width="2560"
     inkscape:window-height="1043"
     inkscape:window-x="0"
     inkscape:window-y="0"
     inkscape:window-maximized="1"
     inkscape:current-layer="layer1" />
  <defs
     id="defs10571" />
  <g
     inkscape:label="Layer 1"
     inkscape:groupmode="layer"
     id="layer1">
    <path
       id="path584-3-3"
       style="fill:#270088;fill-opacity:1;stroke-width:11.8766;stroke-linecap:round;stroke-linejoin:round"
       d="m 138.66213,25.811744 c -64.493571,-1.3e-5 -116.776596,42.01708 -116.778598,93.848876 0.01969,28.9665 16.684963,56.30199 45.15167,74.06877 1.240399,36.96436 69.555748,49.68726 97.801888,41.4883 -20.38968,-2.00465 -38.11814,-12.52457 -37.40499,-22.04425 3.72136,0.36985 4.59303,0.32063 11.23003,0.33944 64.49523,0 116.77884,-42.01915 116.77858,-93.85223 -0.002,-51.83179 -52.28502,-93.848887 -116.77858,-93.848873 z"
       sodipodi:nodetypes="sccccccss" />
    <g
       aria-label="Chabi"
       transform="rotate(-0.94483484)"
       id="text12569-2-5-2-6-6"
       style="font-weight:bold;font-size:65.6562px;font-family:Comfortaa;-inkscape-font-specification:'Comfortaa Bold';text-align:center;text-anchor:middle;fill:#e8eaf3;stroke-width:8.20619">
      <path
         d="m 64.434349,143.99282 c 5.974714,0 11.358522,-1.90403 16.085768,-5.71209 0.722218,-0.72222 1.050499,-1.51009 1.050499,-2.42928 0,-2.82321 -2.75756,-4.13634 -5.055527,-2.42928 -3.676747,2.75756 -7.616119,4.33331 -12.08074,4.33331 -10.373679,0 -18.777673,-8.86359 -18.777673,-20.09079 0,-11.0959 8.403994,-20.090801 18.777673,-20.090801 5.712089,0 8.600961,1.510092 11.883771,4.333311 2.297967,1.83837 5.449465,0.39394 5.449465,-2.166657 0,-1.116155 -0.262625,-1.838373 -1.313124,-2.691904 -4.924215,-4.005028 -9.32318,-5.646433 -16.020112,-5.646433 -14.313051,0 -25.343292,11.621144 -25.343292,26.262484 0,14.8383 11.095897,26.32813 25.343292,26.32813 z"
         id="path11079" />
      <path
         d="m 109.6715,107.09404 c -4.46463,0 -8.404,1.6414 -11.161557,4.39896 V 95.407234 c 0,-1.969685 -1.378781,-3.348466 -3.348467,-3.348466 -1.969685,0 -3.348466,1.378781 -3.348466,3.348466 v 44.646216 c 0,1.96968 1.378781,3.34846 3.348466,3.34846 1.969686,0 3.348467,-1.37878 3.348467,-3.34846 V 121.5384 c 0,-4.7929 4.267657,-8.40399 9.848427,-8.40399 5.97472,0 10.43934,3.34846 10.43934,10.76761 v 16.15143 c 0,1.90403 1.44443,3.34846 3.34846,3.34846 1.90403,0 3.34847,-1.44443 3.34847,-3.34846 v -16.15143 c 0,-10.89892 -6.82825,-16.80798 -15.82314,-16.80798 z"
         id="path11081" />
      <path
         d="m 152.93896,107.15969 c -10.30802,0 -18.12111,7.87875 -18.12111,18.25243 0,10.37368 7.22218,18.18676 16.80799,18.18676 5.18684,0 9.65146,-2.29796 12.67165,-5.97471 v 2.42928 c 0,1.90403 1.44443,3.34846 3.34846,3.34846 1.90403,0 3.34847,-1.44443 3.34847,-3.34846 v -14.64133 c -0.0657,-10.37368 -7.81309,-18.25243 -18.05546,-18.25243 z m 0,30.53014 c -6.63127,0 -11.6868,-5.2525 -11.6868,-12.27771 0,-7.02522 5.05553,-12.34337 11.6868,-12.34337 6.63128,0 11.62115,5.31815 11.62115,12.34337 0,7.02521 -4.98987,12.27771 -11.62115,12.27771 z"
         id="path11083" />
      <path
         d="m 200.34269,107.15969 c -5.18684,0 -9.65146,2.29797 -12.67165,5.97472 V 95.407234 c 0,-1.969685 -1.37878,-3.348466 -3.34846,-3.348466 -1.96969,0 -3.34847,1.378781 -3.34847,3.348466 v 29.939226 c 0.0657,10.37368 7.81309,18.25242 18.05546,18.25242 10.30802,0 18.12111,-7.87874 18.12111,-18.25242 0,-10.37368 -7.22218,-18.18677 -16.80799,-18.18677 z m -1.31312,30.53014 c -6.63128,0 -11.62115,-5.31816 -11.62115,-12.34337 0,-7.02521 4.98987,-12.27771 11.62115,-12.27771 6.63127,0 11.6868,5.2525 11.6868,12.27771 0,7.02521 -5.05553,12.34337 -11.6868,12.34337 z"
         id="path11085" />
      <path
         d="m 231.13539,101.57892 c 2.36362,0 4.33331,-1.969689 4.33331,-4.333312 0,-2.363623 -1.96969,-4.333309 -4.33331,-4.333309 -2.36362,0 -4.33331,1.969686 -4.33331,4.333309 0,2.363623 1.96969,4.333312 4.33331,4.333312 z m 0,41.75734 c 1.96969,0 3.34847,-1.37878 3.34847,-3.34847 v -29.21701 c 0,-1.96968 -1.37878,-3.34846 -3.34847,-3.34846 -1.96969,0 -3.34847,1.37878 -3.34847,3.34846 v 29.21701 c 0,1.96969 1.37878,3.34847 3.34847,3.34847 z"
         id="path11087" />
    </g>
  </g>
</svg>
